<?xml version="1.0" standalone="no"?><!DOCTYPE svg PUBLIC "-//W3C//DTD SVG 1.1//EN" "http://www.w3.org/Graphics/SVG/1.1/DTD/svg11.dtd"><svg t="1637465378364" class="icon" viewBox="0 0 1024 1024" version="1.1" xmlns="http://www.w3.org/2000/svg" p-id="4221" xmlns:xlink="http://www.w3.org/1999/xlink" width="200" height="200"><defs><style type="text/css"></style></defs><path d="M507.36 960.64a448.75 448.75 0 0 1-174.64-862 445.86 445.86 0 0 1 174.64-35.28 453.48 453.48 0 0 1 69 5.27A445.85 445.85 0 0 1 696.2 104.9a32 32 0 1 1-27 58 381.85 381.85 0 0 0-102.64-31.07 389.24 389.24 0 0 0-59.19-4.52 384.61 384.61 0 1 0 358.7 523.83 32 32 0 1 1 59.66 23.16 448.79 448.79 0 0 1-418.37 286.34zM933.27 552.74a32 32 0 0 1-32-32 390.18 390.18 0 0 0-3-48.67 384.48 384.48 0 0 0-122.21-235.31 32 32 0 0 1 43.18-47.24 448.54 448.54 0 0 1 142.48 274.54 454.25 454.25 0 0 1 3.55 56.69 32 32 0 0 1-32 31.99z" fill="#FF7500" p-id="4222"></path><path d="M517 485.73c-2.95 15.11-7.89 15.14-11 0.05l-54.46-266.06c-3.09-15.09 7-27.29 22.38-27.12l72.11 0.81c15.4 0.17 25.59 12.68 22.64 27.79zM505.92 540.7c2.95-15.11 7.89-15.14 11-0.05l54.52 266.07c3.09 15.09-7 27.29-22.38 27.12l-72.11-0.84c-15.4-0.17-25.59-12.68-22.64-27.79zM496 489.85c8.6 12.77 5.12 16.28-7.73 7.8L261.56 348.07c-12.85-8.48-14.36-24.23-3.35-35l51.56-50.42c11-10.77 27.06-9.13 35.66 3.65zM527 536.59c-8.6-12.77-5.12-16.28 7.73-7.8l226.68 149.58c12.85 8.48 14.36 24.23 3.35 35l-51.56 50.42c-11 10.77-27.06 9.13-35.66-3.65zM484 507.66c15.11 2.95 15.14 7.89 0.05 11L218 573.17c-15.09 3.09-27.29-7-27.12-22.38l0.81-72.11c0.17-15.4 12.68-25.59 27.79-22.64zM539 518.78c-15.11-2.95-15.14-7.89-0.05-11L805 453.27c15.09-3.09 27.29 7 27.12 22.38l-0.81 72.11c-0.17 15.4-12.68 25.59-27.79 22.64zM488.12 528.72c12.77-8.6 16.28-5.12 7.8 7.73l-149.59 226.7c-8.48 12.85-24.23 14.36-35 3.35l-50.42-51.56c-10.77-11-9.13-27.06 3.65-35.66zM534.85 497.72c-12.77 8.6-16.28 5.12-7.8-7.73l149.58-226.7c8.48-12.85 24.23-14.36 35-3.35L762 311.5c10.77 11 9.13 27.06-3.65 35.66z" fill="#FFA400" p-id="4223"></path></svg>